<?xml version="1.0" encoding="utf-8"?>
<!-- Generator: Adobe Illustrator 19.0.0, SVG Export Plug-In . SVG Version: 6.00 Build 0)  -->
<svg version="1.1" id="Layer_1" xmlns="http://www.w3.org/2000/svg" xmlns:xlink="http://www.w3.org/1999/xlink" x="0px" y="0px"
	 viewBox="-198 77.4 528 530" style="enable-background:new -198 77.4 528 530;" xml:space="preserve">
<style type="text/css">
	.st0{fill:#F37451;stroke:#FFFFFF;stroke-width:11;stroke-miterlimit:10;}
	.st1{fill:#FFC70B;}
	.st2{fill:#76CDCE;}
	.st3{fill:#212121;}
	.st4{fill:#4D4D4D;}
	.st5{fill:#565656;}
	.st6{fill:#FFFFFF;}
	.st7{fill:#F37451;}
	.st8{fill:#CCCCCC;}
	.st9{fill:#96E0DE;}
</style>
<g>
	<circle class="st0" cx="66.3" cy="342.4" r="254"/>
	<path class="st1" d="M243.6,323.8l-19.3-13.4l-17.7-77.2c-4.2-18.5-20.7-31.7-39.7-31.7H-32.2c-19,0-35.5,13.1-39.7,31.7
		l-17.7,77.2l-19.3,13.4c-12.8,8.8-20.4,23.4-20.4,38.9v90.6H264v-90.6C264,347.2,256.4,332.6,243.6,323.8z"/>
	<path class="st2" d="M201.7,310.4H-67.1l16.6-72.3c2-8.6,9.5-14.6,18.3-14.6h199.1c8.8,0,16.3,6,18.3,14.6L201.7,310.4z"/>
	<path class="st3" d="M-107.4,455.6v40.7c0,5.4,4.3,9.7,9.7,9.7h37.1c5.4,0,9.7-4.3,9.7-9.7v-40.7"/>
	<path class="st3" d="M185.5,455.6v40.7c0,5.4,4.3,9.7,9.7,9.7h37.1c5.4,0,9.7-4.3,9.7-9.7v-40.7"/>
	<path class="st4" d="M124.3,455.6v2.7c0,6.6-9.7,12-21.7,12H32c-12,0-21.7-5.4-21.7-12v-2.7"/>
	<g>
		<path class="st5" d="M30.7,337.8v84.4H7.8v-59.4C7.8,349.7,17.9,339,30.7,337.8z"/>
		<rect x="42.7" y="337.7" class="st5" width="18.6" height="84.5"/>
		<rect x="73.3" y="337.7" class="st5" width="18.6" height="84.5"/>
		<path class="st5" d="M126.8,362.9v59.3h-22.9v-84.4C116.7,339,126.8,349.7,126.8,362.9z"/>
	</g>
	<g>
		<circle class="st6" cx="-77.3" cy="377" r="23"/>
		<circle class="st6" cx="211.9" cy="377" r="23"/>
	</g>
	<g>
		<path class="st7" d="M-37.7,406.2c-0.5,0-1,0-1.5-0.1c-0.5-0.1-0.9-0.2-1.4-0.4c-0.5-0.2-0.9-0.4-1.3-0.7
			c-0.4-0.3-0.8-0.6-1.1-0.9c-0.3-0.4-0.7-0.7-0.9-1.1c-0.3-0.4-0.5-0.9-0.7-1.3c-0.2-0.5-0.3-0.9-0.4-1.4c-0.1-0.5-0.1-1-0.1-1.5
			c0-2,0.8-3.9,2.2-5.3c0.4-0.4,0.7-0.7,1.1-0.9s0.8-0.5,1.3-0.7c0.4-0.2,0.9-0.3,1.4-0.4c1-0.2,2-0.2,2.9,0
			c0.5,0.1,0.9,0.2,1.4,0.4c0.5,0.2,0.9,0.4,1.3,0.7c0.4,0.3,0.8,0.6,1.1,0.9c1.4,1.4,2.2,3.3,2.2,5.3c0,0.5-0.1,1-0.2,1.5
			c-0.1,0.5-0.2,1-0.4,1.4c-0.2,0.5-0.4,0.9-0.7,1.3c-0.3,0.4-0.6,0.8-0.9,1.1c-0.3,0.3-0.7,0.6-1.1,0.9c-0.4,0.3-0.8,0.5-1.3,0.7
			c-0.4,0.2-0.9,0.3-1.4,0.4C-36.7,406.2-37.2,406.2-37.7,406.2z"/>
		<path class="st7" d="M172.3,406.2c-0.5,0-1,0-1.5-0.1c-0.5-0.1-1-0.2-1.4-0.4c-0.5-0.2-0.9-0.4-1.3-0.7s-0.8-0.6-1.1-0.9
			c-1.4-1.4-2.2-3.3-2.2-5.3c0-2,0.8-3.9,2.2-5.3c0.4-0.4,0.7-0.7,1.1-0.9s0.8-0.5,1.3-0.7c0.5-0.2,0.9-0.3,1.4-0.4
			c1-0.2,2-0.2,2.9,0c0.5,0.1,1,0.2,1.4,0.4c0.5,0.2,0.9,0.4,1.3,0.7c0.4,0.3,0.8,0.6,1.1,0.9s0.7,0.7,0.9,1.1
			c0.3,0.4,0.5,0.8,0.7,1.3c0.2,0.5,0.3,0.9,0.4,1.4c0.1,0.5,0.1,1,0.1,1.5s0,1-0.1,1.5s-0.2,1-0.4,1.4c-0.2,0.5-0.4,0.9-0.7,1.3
			c-0.3,0.4-0.6,0.8-0.9,1.1c-0.4,0.3-0.7,0.7-1.1,0.9s-0.8,0.5-1.3,0.7c-0.4,0.2-0.9,0.3-1.4,0.4
			C173.3,406.2,172.8,406.2,172.3,406.2z"/>
	</g>
	<path class="st5" d="M115.2,151.4H19.4c-7.5,0-13.5,6.1-13.5,13.5v36.6h122.8V165C128.7,157.5,122.6,151.4,115.2,151.4z"/>
	<path class="st8" d="M258.9,455.6h-383.2c-9.2,0-16.7-7.5-16.7-16.7l0,0c0-9.2,7.5-16.7,16.7-16.7h383.2c9.2,0,16.7,7.5,16.7,16.7
		l0,0C275.6,448.1,268.1,455.6,258.9,455.6z"/>
	<g>
		<rect x="88.4" y="162.5" class="st1" width="14" height="14"/>
		<rect x="74.3" y="176.5" class="st1" width="14" height="14"/>
		<rect x="60.3" y="162.5" class="st1" width="14" height="14"/>
		<rect x="46.2" y="176.5" class="st1" width="14" height="14"/>
		<rect x="32.2" y="162.5" class="st1" width="14" height="14"/>
	</g>
	<path class="st9" d="M201.7,310.4h-82.6l-86.9-86.9h134.5c8.8,0,16.3,6,18.3,14.6L201.7,310.4z"/>
</g>
</svg>
